<svg xmlns="http://www.w3.org/2000/svg" version="1.1" xmlns:xlink="http://www.w3.org/1999/xlink" xmlns:svgjs="http://svgjs.dev/svgjs" width="90" height="30" viewBox="0 0 1000 237"><g transform="matrix(1,0,0,1,-0.6060540381325836,0.27614911563526334)"><svg viewBox="0 0 396 94" data-background-color="#ffffff" preserveAspectRatio="xMidYMid meet" height="237" width="1000" xmlns="http://www.w3.org/2000/svg" xmlns:xlink="http://www.w3.org/1999/xlink"><g id="tight-bounds" transform="matrix(1,0,0,1,0.23999739910050266,-0.109527359449487)"><svg viewBox="0 0 395.52 94.21905485679004" height="94.21905485679004" width="395.52"><g><svg viewBox="0 0 531.7004069366599 126.65935934603243" height="94.21905485679004" width="395.52"><g transform="matrix(1,0,0,1,136.18040693665992,17.505019996448766)"><svg viewBox="0 0 395.52 91.6493193531349" height="91.6493193531349" width="395.52"><g id="textblocktransform"><svg viewBox="0 0 395.52 91.6493193531349" height="91.6493193531349" width="395.52" id="textblock"><g><svg viewBox="0 0 395.52 59.327999999999996" height="59.327999999999996" width="395.52"><g transform="matrix(1,0,0,1,0,0)"><svg width="395.52" viewBox="0.800000011920929 -35.5 240.97999572753906 36.150001525878906" height="59.327999999999996" data-palette-color="#a751d3"><path d="M21.6-9.8L21.6-9.8Q21.6-5 17.95-2.2 14.3 0.6 9.1 0.6L9.1 0.6Q5.6 0.6 3.33-1.18 1.05-2.95 0.8-4.2L0.8-4.2Q1.35-5.85 3.15-7.9 4.95-9.95 6.4-10.4L6.4-10.4Q8.95-8.75 11.15-3.05L11.15-3.05Q14.4-3.15 14.4-6.6L14.4-6.6Q14.4-8.5 12.88-11.28 11.35-14.05 9.55-16.48 7.75-18.9 6.23-21.93 4.7-24.95 4.7-27.3L4.7-27.3Q4.7-31.1 7.78-33.3 10.85-35.5 14.7-35.5 18.55-35.5 20.68-33.85 22.8-32.2 22.8-30.1 22.8-28 21.2-25.8 19.6-23.6 18-22.3L18-22.3 16.4-21Q17-20.2 17.85-18.95 18.7-17.7 20.15-14.7 21.6-11.7 21.6-9.8ZM17.78-26.2Q18.45-26.85 19-27.78 19.55-28.7 19.55-29.73 19.55-30.75 18.35-31.45 17.15-32.15 15.48-32.15 13.8-32.15 12.68-31.38 11.55-30.6 11.55-29.53 11.55-28.45 12.28-27.03 13-25.6 13.7-24.65L13.7-24.65 14.45-23.7Q14.95-23.95 16.03-24.75 17.1-25.55 17.78-26.2ZM25.05-3.78Q25.05-5.9 26.35-11.08 27.65-16.25 27.65-17.43 27.65-18.6 25.85-20.55L25.85-20.55 25.9-21.2Q29.3-21.9 34.85-21.9L34.85-21.9Q35.1-21.25 35.1-19.55 35.1-17.85 33.7-12.3 32.3-6.75 32.3-5.4 32.3-4.05 33.3-4.05L33.3-4.05Q34.75-4.05 36.65-5.1L36.65-5.1Q36.85-6.3 37.65-9.7L37.65-9.7Q39.45-17.7 39.45-21.15L39.45-21.15Q41.2-21.85 45.75-21.85L45.75-21.85 46.7-21.85Q46.7-19.5 45.3-12.68 43.9-5.85 43.9-4.67 43.9-3.5 44.4-3.5L44.4-3.5Q44.7-3.5 47.25-4.7L47.25-4.7 48.2-3.1Q43.75 0.6 40.4 0.6L40.4 0.6Q38.8 0.6 37.67-0.3 36.55-1.2 36.4-2.65L36.4-2.65Q32.35 0.65 29.05 0.65L29.05 0.65Q27.3 0.65 26.17-0.5 25.05-1.65 25.05-3.78ZM50.95 0.15L50.95 0.15 50 0.15Q50-2.2 51.42-8.85 52.85-15.5 52.85-16.4L52.85-16.4Q52.85-18.05 51.45-19.9L51.45-19.9 51-20.5 51.05-21.15Q53.75-21.9 59.7-21.9L59.7-21.9Q60.4-20.95 60.4-18.8L60.4-18.8Q64.9-22.15 67.55-22.15L67.55-22.15Q70.9-22.15 71.5-18.7L71.5-18.7Q72.84-19.8 75.02-20.98 77.2-22.15 78.92-22.15 80.65-22.15 81.8-21.03 82.95-19.9 82.95-17.9 82.95-15.9 81.84-11.3 80.75-6.7 80.75-5.13 80.75-3.55 81.2-3.55L81.2-3.55Q81.5-3.55 83.25-4.5L83.25-4.5 83.8-4.8 84.7-3.05Q83.4-1.75 81.17-0.58 78.95 0.6 77.25 0.6L77.25 0.6Q73.5 0.6 73.5-3.65L73.5-3.65Q73.5-5.2 74.57-9.88 75.65-14.55 75.65-15.98 75.65-17.4 74.8-17.4L74.8-17.4Q73.34-17.4 71.5-16.3L71.5-16.3Q71.4-15.3 70.12-9.5 68.84-3.7 68.84-0.5L68.84-0.5Q67.4 0.15 62.05 0.15L62.05 0.15Q61.95-0.4 61.95-2.5 61.95-4.6 63.12-9.65 64.3-14.7 64.3-16.05 64.3-17.4 63.35-17.4L63.35-17.4Q61.85-17.4 60.05-16.2L60.05-16.2Q59.95-15.75 59.05-11.8L59.05-11.8Q57.25-3.9 57.25-0.55L57.25-0.55Q55.5 0.15 50.95 0.15ZM87.64 0.15L87.64 0.15 86.69 0.15Q86.69-2.2 88.12-8.85 89.54-15.5 89.54-16.4L89.54-16.4Q89.54-18.05 88.14-19.9L88.14-19.9 87.69-20.5 87.74-21.15Q90.44-21.9 96.39-21.9L96.39-21.9Q97.09-20.95 97.09-18.8L97.09-18.8Q101.59-22.15 104.24-22.15L104.24-22.15Q107.59-22.15 108.19-18.7L108.19-18.7Q109.54-19.8 111.72-20.98 113.89-22.15 115.62-22.15 117.34-22.15 118.49-21.03 119.64-19.9 119.64-17.9 119.64-15.9 118.54-11.3 117.44-6.7 117.44-5.13 117.44-3.55 117.89-3.55L117.89-3.55Q118.19-3.55 119.94-4.5L119.94-4.5 120.49-4.8 121.39-3.05Q120.09-1.75 117.87-0.58 115.64 0.6 113.94 0.6L113.94 0.6Q110.19 0.6 110.19-3.65L110.19-3.65Q110.19-5.2 111.27-9.88 112.34-14.55 112.34-15.98 112.34-17.4 111.49-17.4L111.49-17.4Q110.04-17.4 108.19-16.3L108.19-16.3Q108.09-15.3 106.82-9.5 105.54-3.7 105.54-0.5L105.54-0.5Q104.09 0.15 98.74 0.15L98.74 0.15Q98.64-0.4 98.64-2.5 98.64-4.6 99.82-9.65 100.99-14.7 100.99-16.05 100.99-17.4 100.04-17.4L100.04-17.4Q98.54-17.4 96.74-16.2L96.74-16.2Q96.64-15.75 95.74-11.8L95.74-11.8Q93.94-3.9 93.94-0.55L93.94-0.55Q92.19 0.15 87.64 0.15ZM137.89-20.7L137.89-20.7Q137.99-20.8 138.44-22L138.44-22Q140.79-22 144.74-20.6L144.74-20.6Q143.49-16.45 142.74-11.93 141.99-7.4 141.99-5.48 141.99-3.55 142.39-3.55L142.39-3.55Q142.69-3.55 144.59-4.5L144.59-4.5 145.19-4.8 146.09-3.05Q145.64-2.65 144.92-2.05 144.19-1.45 142.19-0.43 140.19 0.6 138.59 0.6L138.59 0.6Q135.49 0.6 134.99-2.2L134.99-2.2Q131.79 0.6 129.22 0.6 126.64 0.6 124.87-1.4 123.09-3.4 123.09-7.7L123.09-7.7Q123.09-14.4 125.84-18.28 128.59-22.15 132.49-22.15L132.49-22.15Q135.29-22.15 137.89-20.7ZM132.19-3.65L132.19-3.65Q133.39-3.65 134.89-4.6L134.89-4.6Q135.24-11.65 137.24-18.55L137.24-18.55Q135.74-19.2 134.69-19.2L134.69-19.2Q132.89-19.2 131.62-15.68 130.34-12.15 130.34-7.9 130.34-3.65 132.19-3.65ZM151.34-6.15L151.34-6.15Q151.34-6.15 151.69-22L151.69-22Q151.69-28.3 150.94-30.1L150.94-30.1 148.49-33.9 148.64-34.65Q152.19-35.45 158.84-35.45L158.84-35.45Q159.79-34 159.79-30.08 159.79-26.15 159.29-19.53 158.79-12.9 158.79-9.3 158.79-5.7 160.49-5.7L160.49-5.7Q161.49-5.7 163.39-7.33 165.29-8.95 166.64-10.85L166.64-10.85Q167.74-22.15 167.74-26.1 167.74-30.05 166.64-33.45L166.64-33.45Q169.29-34.8 175.34-35.5L175.34-35.5Q175.89-33.7 175.89-30.43 175.89-27.15 174.86-19.05 173.84-10.95 173.84-8.33 173.84-5.7 175.36-5.7 176.89-5.7 179.49-8.6 182.09-11.5 184.26-15.83 186.44-20.15 186.69-23.65L186.69-23.65 181.39-26.75Q181.74-29.75 182.81-31.93 183.89-34.1 184.79-34.8L184.79-34.8 185.69-35.5Q188.74-35.5 190.36-33.93 191.99-32.35 191.99-30.2L191.99-30.2Q191.99-26.15 189.96-20.75 187.94-15.35 184.96-10.65 181.99-5.95 178.19-2.68 174.39 0.6 171.19 0.6L171.19 0.6Q169.29 0.6 167.81-1.2 166.34-3 166.29-5.8L166.29-5.8Q164.09-2.8 161.64-1.1 159.19 0.6 156.94 0.6 154.69 0.6 153.01-1.28 151.34-3.15 151.34-6.15ZM201.89-19.05Q201.89-16.95 200.54-11.83 199.19-6.7 199.19-5.13 199.19-3.55 199.64-3.55L199.64-3.55Q199.94-3.55 201.94-4.5L201.94-4.5 202.54-4.8 203.39-3.05Q202.94-2.65 202.19-2.05 201.44-1.45 199.39-0.43 197.34 0.6 195.59 0.6 193.84 0.6 192.84-0.48 191.84-1.55 191.84-3.38 191.84-5.2 193.09-9.88 194.34-14.55 194.34-15.95L194.34-15.95Q194.34-18.05 193.04-19.9L193.04-19.9 192.59-20.5 192.64-21.15Q195.29-21.9 201.24-21.9L201.24-21.9Q201.89-21.15 201.89-19.05ZM196.19-27.38Q195.19-28.35 195.19-30 195.19-31.65 196.56-32.9 197.94-34.15 199.74-34.15 201.54-34.15 202.54-33.15 203.54-32.15 203.54-30.53 203.54-28.9 202.11-27.65 200.69-26.4 198.94-26.4 197.19-26.4 196.19-27.38ZM220.58-6.55L220.58-6.55Q220.58-3.4 217.81-1.4 215.03 0.6 211.48 0.6 207.93 0.6 205.86-0.9 203.78-2.4 203.78-3.55L203.78-3.55Q203.78-4.25 205.53-5.83 207.28-7.4 208.48-7.75L208.48-7.75Q210.98-5.9 212.58-1.9L212.58-1.9Q214.43-2.05 214.43-3.65L214.43-3.65Q214.43-5.95 210.38-10.18 206.33-14.4 206.33-16.9 206.33-19.4 208.58-20.78 210.83-22.15 214.01-22.15 217.18-22.15 218.78-21.03 220.38-19.9 220.38-17.98 220.38-16.05 217.33-12.65L217.33-12.65Q217.68-12.3 218.23-11.73 218.78-11.15 219.68-9.55 220.58-7.95 220.58-6.55ZM215.78-14.4Q217.88-16.2 217.88-17.95 217.88-19.7 215.48-19.7L215.48-19.7Q214.33-19.7 213.58-19.23 212.83-18.75 212.83-18.15L212.83-18.15Q212.83-17.05 215.03-15.05L215.03-15.05 215.78-14.4ZM222.68-8.65L222.68-8.65Q222.68-14.9 226.46-18.53 230.23-22.15 235.03-22.15L235.03-22.15Q237.98-22.15 239.88-20.7 241.78-19.25 241.78-16.82 241.78-14.4 240.56-12.75 239.33-11.1 237.58-10.2L237.58-10.2Q234.03-8.45 231.08-8L231.08-8 229.88-7.85Q230.23-3.15 233.73-3.15L233.73-3.15Q234.93-3.15 236.28-3.75 237.63-4.35 238.38-4.95L238.38-4.95 239.13-5.55 240.33-3.95Q239.93-3.4 238.73-2.5 237.53-1.6 236.48-1L236.48-1Q233.58 0.6 230.13 0.6 226.68 0.6 224.68-1.85 222.68-4.3 222.68-8.65ZM229.83-10.3Q232.38-10.75 233.88-12.45 235.38-14.15 235.38-16.85 235.38-19.55 233.78-19.55L233.78-19.55Q231.88-19.55 230.86-16.32 229.83-13.1 229.83-10.3L229.83-10.3Z" opacity="1" transform="matrix(1,0,0,1,0,0)" fill="#a751d3" class="wordmark-text-0" data-fill-palette-color="primary" id="text-0"></path></svg></g></svg></g><g transform="matrix(1,0,0,1,0,73.333916928)"><svg viewBox="0 0 232.209792 18.315402425134902" height="18.315402425134902" width="232.209792"><g transform="matrix(1,0,0,1,0,0)"><svg width="232.209792" viewBox="1.2000000476837158 -37.70000076293945 484.05999755859375 38.19000244140625" height="18.315402425134902" data-palette-color="#a56cc1"><path d="M1.2-24.51L1.2-24.51Q1.2-26.68 2.03-28.59 2.86-30.49 4.28-31.92 5.71-33.35 7.62-34.18 9.52-35.01 11.69-35.01L11.69-35.01 27.76-35.01 27.76-28 11.69-28Q10.96-28 10.33-27.73 9.69-27.47 9.22-26.99 8.74-26.51 8.47-25.88 8.2-25.24 8.2-24.51L8.2-24.51Q8.2-23.78 8.47-23.13 8.74-22.49 9.22-22.01 9.69-21.53 10.33-21.26 10.96-21 11.69-21L11.69-21 18.7-21Q20.87-21 22.79-20.18 24.71-19.36 26.14-17.93 27.56-16.5 28.38-14.59 29.2-12.67 29.2-10.5L29.2-10.5Q29.2-8.33 28.38-6.42 27.56-4.52 26.14-3.09 24.71-1.66 22.79-0.83 20.87 0 18.7 0L18.7 0 3.15 0 3.15-7.01 18.7-7.01Q19.43-7.01 20.07-7.28 20.7-7.54 21.18-8.02 21.66-8.5 21.92-9.13 22.19-9.77 22.19-10.5L22.19-10.5Q22.19-11.23 21.92-11.87 21.66-12.5 21.18-12.98 20.7-13.45 20.07-13.72 19.43-13.99 18.7-13.99L18.7-13.99 11.69-13.99Q9.52-13.99 7.62-14.82 5.71-15.65 4.28-17.08 2.86-18.51 2.03-20.42 1.2-22.34 1.2-24.51ZM54.25 0L52.05-3.05Q51.24-2.32 50.33-1.67 49.41-1.03 48.41-0.55 47.41-0.07 46.35 0.21 45.29 0.49 44.19 0.49L44.19 0.49Q41.77 0.49 39.65-0.37 37.52-1.22 35.92-2.8 34.32-4.37 33.41-6.63 32.49-8.89 32.49-11.69L32.49-11.69 32.49-26.15 39.13-26.15 39.13-11.69Q39.13-10.38 39.54-9.34 39.94-8.3 40.62-7.59 41.31-6.88 42.22-6.52 43.14-6.15 44.19-6.15L44.19-6.15Q45.21-6.15 46.13-6.63 47.04-7.1 47.73-7.89 48.41-8.67 48.8-9.66 49.19-10.64 49.19-11.69L49.19-11.69 49.19-26.15 55.86-26.15 55.86 0 54.25 0ZM94.18-16.6L94.18 0 87.54 0 87.54-16.6Q87.54-17.29 87.29-17.9 87.03-18.51 86.57-18.97 86.1-19.43 85.49-19.69 84.88-19.95 84.2-19.95L84.2-19.95Q83.52-19.95 82.92-19.69 82.32-19.43 81.87-18.97 81.42-18.51 81.16-17.9 80.9-17.29 80.9-16.6L80.9-16.6 80.9 0 74.24 0 74.24-16.6Q74.24-17.29 73.98-17.9 73.73-18.51 73.26-18.97 72.8-19.43 72.19-19.69 71.58-19.95 70.89-19.95L70.89-19.95Q70.21-19.95 69.61-19.69 69.01-19.43 68.56-18.97 68.11-18.51 67.85-17.9 67.6-17.29 67.6-16.6L67.6-16.6 67.6 0 60.93 0 60.93-26.15 62.54-26.15 64.35-24.15Q65.74-25.32 67.41-25.96 69.09-26.61 70.89-26.61L70.89-26.61Q72.72-26.61 74.47-25.93 76.22-25.24 77.53-23.56L77.53-23.56Q78.14-24.39 78.93-24.98 79.71-25.56 80.57-25.93 81.44-26.29 82.37-26.45 83.3-26.61 84.2-26.61L84.2-26.61Q86.27-26.61 88.09-25.83 89.91-25.05 91.27-23.69 92.62-22.34 93.4-20.51 94.18-18.68 94.18-16.6L94.18-16.6ZM132.29-16.6L132.29 0 125.65 0 125.65-16.6Q125.65-17.29 125.4-17.9 125.14-18.51 124.68-18.97 124.21-19.43 123.6-19.69 122.99-19.95 122.31-19.95L122.31-19.95Q121.62-19.95 121.03-19.69 120.43-19.43 119.98-18.97 119.52-18.51 119.27-17.9 119.01-17.29 119.01-16.6L119.01-16.6 119.01 0 112.35 0 112.35-16.6Q112.35-17.29 112.09-17.9 111.83-18.51 111.37-18.97 110.91-19.43 110.3-19.69 109.68-19.95 109-19.95L109-19.95Q108.32-19.95 107.72-19.69 107.12-19.43 106.67-18.97 106.22-18.51 105.96-17.9 105.71-17.29 105.71-16.6L105.71-16.6 105.71 0 99.04 0 99.04-26.15 100.65-26.15 102.46-24.15Q103.85-25.32 105.52-25.96 107.19-26.61 109-26.61L109-26.61Q110.83-26.61 112.58-25.93 114.32-25.24 115.64-23.56L115.64-23.56Q116.25-24.39 117.03-24.98 117.81-25.56 118.68-25.93 119.55-26.29 120.48-26.45 121.4-26.61 122.31-26.61L122.31-26.61Q124.38-26.61 126.2-25.83 128.02-25.05 129.37-23.69 130.73-22.34 131.51-20.51 132.29-18.68 132.29-16.6L132.29-16.6ZM162.47-26.1L162.47 0 160.85 0 158.27-3.59Q157.31-2.73 156.25-1.99 155.19-1.25 154.02-0.7 152.85-0.15 151.61 0.17 150.38 0.49 149.11 0.49L149.11 0.49Q146.35 0.49 143.92-0.44 141.49-1.37 139.68-3.14 137.86-4.91 136.81-7.47 135.76-10.03 135.76-13.31L135.76-13.31Q135.76-16.36 136.81-18.91 137.86-21.46 139.68-23.29 141.49-25.12 143.92-26.14 146.35-27.15 149.11-27.15L149.11-27.15Q150.38-27.15 151.63-26.83 152.87-26.51 154.04-25.95 155.21-25.39 156.28-24.63 157.34-23.88 158.27-23L158.27-23 160.85-26.1 162.47-26.1ZM155.75-13.31L155.75-13.31Q155.75-14.67 155.23-15.95 154.7-17.24 153.8-18.23 152.9-19.21 151.69-19.81 150.48-20.41 149.11-20.41L149.11-20.41Q147.74-20.41 146.54-19.95 145.33-19.48 144.44-18.58 143.54-17.68 143.03-16.35 142.52-15.01 142.52-13.31L142.52-13.31Q142.52-11.6 143.03-10.27 143.54-8.94 144.44-8.03 145.33-7.13 146.54-6.67 147.74-6.2 149.11-6.2L149.11-6.2Q150.48-6.2 151.69-6.8 152.9-7.4 153.8-8.39 154.7-9.38 155.23-10.66 155.75-11.94 155.75-13.31ZM174.21-14.4L174.21 0 167.54 0 167.54-26.15 169.15-26.15 171.35-23.05Q172.96-24.51 175.01-25.31 177.06-26.1 179.26-26.1L179.26-26.1 185.14-26.1 185.14-19.46 179.26-19.46Q178.21-19.46 177.28-19.07 176.35-18.68 175.67-17.99 174.99-17.31 174.6-16.38 174.21-15.45 174.21-14.4L174.21-14.4ZM196.1-33.25L196.1-33.25Q196.1-32.32 195.75-31.52 195.4-30.71 194.78-30.11 194.17-29.52 193.36-29.16 192.54-28.81 191.61-28.81L191.61-28.81Q190.68-28.81 189.87-29.16 189.05-29.52 188.45-30.11 187.85-30.71 187.5-31.52 187.14-32.32 187.14-33.25L187.14-33.25Q187.14-34.16 187.5-34.97 187.85-35.79 188.45-36.39 189.05-36.99 189.87-37.34 190.68-37.7 191.61-37.7L191.61-37.7Q192.54-37.7 193.36-37.34 194.17-36.99 194.78-36.39 195.4-35.79 195.75-34.97 196.1-34.16 196.1-33.25ZM194.96-26.15L194.96 0 188.24 0 188.24-26.15 194.96-26.15ZM220.44-6.64L220.44 0 198.64 0 209.65-19.46 198.64-19.46 198.64-26.1 220.44-26.1 209.43-6.64 220.44-6.64ZM246.64-21.46L234.14-6.4Q234.53-6.27 234.92-6.24 235.31-6.2 235.7-6.2L235.7-6.2Q236.67-6.2 237.58-6.47 238.48-6.74 239.27-7.24 240.07-7.74 240.69-8.46 241.31-9.18 241.7-10.06L241.7-10.06 246.59-5.15Q245.66-3.83 244.45-2.78 243.24-1.73 241.84-1 240.43-0.27 238.88 0.11 237.33 0.49 235.7 0.49L235.7 0.49Q232.94 0.49 230.51-0.54 228.08-1.56 226.26-3.39 224.44-5.22 223.39-7.75 222.34-10.28 222.34-13.31L222.34-13.31Q222.34-16.41 223.39-18.97 224.44-21.53 226.26-23.34 228.08-25.15 230.51-26.15 232.94-27.15 235.7-27.15L235.7-27.15Q237.33-27.15 238.9-26.76 240.46-26.37 241.86-25.63 243.27-24.9 244.49-23.84 245.71-22.78 246.64-21.46L246.64-21.46ZM229.79-9.84L237.55-20.14Q237.09-20.31 236.64-20.36 236.19-20.41 235.7-20.41L235.7-20.41Q234.33-20.41 233.12-19.91 231.91-19.41 231.02-18.48 230.13-17.55 229.62-16.25 229.11-14.94 229.11-13.31L229.11-13.31Q229.11-12.94 229.14-12.48 229.18-12.01 229.26-11.54 229.35-11.06 229.47-10.62 229.59-10.18 229.79-9.84L229.79-9.84ZM296.97-26.1L296.97-9.45Q296.97-7.4 296.19-5.58 295.41-3.76 294.05-2.42 292.7-1.07 290.88-0.29 289.06 0.49 286.99 0.49L286.99 0.49Q285.13 0.49 283.42-0.16 281.71-0.81 280.32-2.05L280.32-2.05Q278.95-0.81 277.26-0.16 275.56 0.49 273.68 0.49L273.68 0.49Q271.61 0.49 269.8-0.29 267.99-1.07 266.64-2.42 265.28-3.76 264.5-5.58 263.72-7.4 263.72-9.45L263.72-9.45 263.72-26.1 270.39-26.1 270.39-9.45Q270.39-8.76 270.64-8.17 270.9-7.57 271.35-7.12 271.8-6.67 272.4-6.41 273-6.15 273.68-6.15L273.68-6.15Q274.36-6.15 274.98-6.41 275.59-6.67 276.05-7.12 276.51-7.57 276.77-8.17 277.03-8.76 277.03-9.45L277.03-9.45 277.03-26.1 283.67-26.1 283.67-9.45Q283.67-8.76 283.93-8.17 284.2-7.57 284.66-7.12 285.11-6.67 285.7-6.41 286.3-6.15 286.99-6.15L286.99-6.15Q287.67-6.15 288.28-6.41 288.89-6.67 289.34-7.12 289.79-7.57 290.06-8.17 290.33-8.76 290.33-9.45L290.33-9.45 290.33-26.1 296.97-26.1ZM309.66-33.25L309.66-33.25Q309.66-32.32 309.31-31.52 308.96-30.71 308.35-30.11 307.74-29.52 306.92-29.16 306.1-28.81 305.17-28.81L305.17-28.81Q304.24-28.81 303.43-29.16 302.61-29.52 302.01-30.11 301.41-30.71 301.06-31.52 300.7-32.32 300.7-33.25L300.7-33.25Q300.7-34.16 301.06-34.97 301.41-35.79 302.01-36.39 302.61-36.99 303.43-37.34 304.24-37.7 305.17-37.7L305.17-37.7Q306.1-37.7 306.92-37.34 307.74-36.99 308.35-36.39 308.96-35.79 309.31-34.97 309.66-34.16 309.66-33.25ZM308.52-26.15L308.52 0 301.8 0 301.8-26.15 308.52-26.15ZM331.76 0L326.7 0Q324.29 0 322.16-0.92 320.04-1.83 318.44-3.43 316.84-5.03 315.92-7.15 315.01-9.28 315.01-11.69L315.01-11.69 315.01-19.46 311.76-19.46 311.76-26.1 315.01-26.1 315.01-36.55 321.65-36.55 321.65-26.1 331.76-26.1 331.76-19.46 321.65-19.46 321.65-11.69Q321.65-10.64 322.04-9.73 322.43-8.81 323.11-8.13 323.8-7.45 324.73-7.04 325.65-6.64 326.7-6.64L326.7-6.64 331.76-6.64 331.76 0ZM342.16-14.94L342.16 0 335.49 0 335.49-36.55 342.16-36.55 342.16-25Q343.35-25.9 344.62-26.28 345.89-26.66 347.21-26.66L347.21-26.66Q349.63-26.66 351.75-25.74 353.87-24.83 355.45-23.23 357.02-21.63 357.94-19.49 358.85-17.36 358.85-14.94L358.85-14.94 358.85 0 352.14 0 352.14-14.94 352.19-14.94Q352.19-15.97 351.8-16.88 351.41-17.8 350.72-18.48 350.04-19.17 349.14-19.56 348.23-19.95 347.21-19.95L347.21-19.95Q346.16-19.95 345.23-19.56 344.3-19.17 343.62-18.48 342.94-17.8 342.55-16.88 342.16-15.97 342.16-14.94L342.16-14.94ZM402.28-7.01L402.28 0 378.28 0 378.28-35.01 402.28-35.01 402.28-28 385.29-28 385.29-21 396.79-21 396.79-13.99 385.29-13.99 385.29-7.01 402.28-7.01ZM431.09-26.1L431.09 0 429.48 0 426.89-3.59Q425.94-2.73 424.87-1.99 423.81-1.25 422.64-0.7 421.47-0.15 420.24 0.17 419 0.49 417.73 0.49L417.73 0.49Q414.97 0.49 412.55-0.44 410.12-1.37 408.3-3.14 406.48-4.91 405.43-7.47 404.38-10.03 404.38-13.31L404.38-13.31Q404.38-16.36 405.43-18.91 406.48-21.46 408.3-23.29 410.12-25.12 412.55-26.14 414.97-27.15 417.73-27.15L417.73-27.15Q419-27.15 420.25-26.83 421.49-26.51 422.67-25.95 423.84-25.39 424.9-24.63 425.96-23.88 426.89-23L426.89-23 429.48-26.1 431.09-26.1ZM424.37-13.31L424.37-13.31Q424.37-14.67 423.85-15.95 423.32-17.24 422.42-18.23 421.52-19.21 420.31-19.81 419.1-20.41 417.73-20.41L417.73-20.41Q416.37-20.41 415.16-19.95 413.95-19.48 413.06-18.58 412.17-17.68 411.65-16.35 411.14-15.01 411.14-13.31L411.14-13.31Q411.14-11.6 411.65-10.27 412.17-8.94 413.06-8.03 413.95-7.13 415.16-6.67 416.37-6.2 417.73-6.2L417.73-6.2Q419.1-6.2 420.31-6.8 421.52-7.4 422.42-8.39 423.32-9.38 423.85-10.66 424.37-11.94 424.37-13.31ZM450.52 0L450.52 0 435.28 0 435.28-6.64 450.52-6.64Q451.2-6.64 451.69-7.13 452.18-7.62 452.18-8.3L452.18-8.3Q452.18-9.01 451.69-9.23 451.2-9.45 450.52-9.45L450.52-9.45 443.59-9.45Q441.85-9.45 440.34-10.11 438.82-10.77 437.7-11.9 436.58-13.04 435.93-14.55 435.28-16.06 435.28-17.8L435.28-17.8Q435.28-19.53 435.93-21.04 436.58-22.56 437.7-23.68 438.82-24.8 440.34-25.45 441.85-26.1 443.59-26.1L443.59-26.1 457.09-26.1 457.09-19.46 443.59-19.46Q442.9-19.46 442.41-18.97 441.93-18.48 441.93-17.8L441.93-17.8Q441.93-17.09 442.41-16.59 442.9-16.09 443.59-16.09L443.59-16.09 450.52-16.09Q452.23-16.09 453.74-15.52 455.26-14.94 456.38-13.92 457.5-12.89 458.16-11.45 458.82-10.01 458.82-8.3L458.82-8.3Q458.82-6.57 458.16-5.07 457.5-3.56 456.38-2.43 455.26-1.29 453.74-0.65 452.23 0 450.52 0ZM485.26-21.46L472.76-6.4Q473.15-6.27 473.54-6.24 473.93-6.2 474.32-6.2L474.32-6.2Q475.3-6.2 476.2-6.47 477.1-6.74 477.9-7.24 478.69-7.74 479.31-8.46 479.94-9.18 480.33-10.06L480.33-10.06 485.21-5.15Q484.28-3.83 483.07-2.78 481.86-1.73 480.46-1 479.06-0.27 477.51 0.11 475.96 0.49 474.32 0.49L474.32 0.49Q471.56 0.49 469.13-0.54 466.7-1.56 464.88-3.39 463.07-5.22 462.02-7.75 460.97-10.28 460.97-13.31L460.97-13.31Q460.97-16.41 462.02-18.97 463.07-21.53 464.88-23.34 466.7-25.15 469.13-26.15 471.56-27.15 474.32-27.15L474.32-27.15Q475.96-27.15 477.52-26.76 479.08-26.37 480.48-25.63 481.89-24.9 483.11-23.84 484.33-22.78 485.26-21.46L485.26-21.46ZM468.41-9.84L476.18-20.14Q475.71-20.31 475.26-20.36 474.81-20.41 474.32-20.41L474.32-20.41Q472.95-20.41 471.74-19.91 470.54-19.41 469.64-18.48 468.75-17.55 468.24-16.25 467.73-14.94 467.73-13.31L467.73-13.31Q467.73-12.94 467.77-12.48 467.8-12.01 467.89-11.54 467.97-11.06 468.09-10.62 468.22-10.18 468.41-9.84L468.41-9.84Z" opacity="1" transform="matrix(1,0,0,1,0,0)" fill="#a56cc1" class="slogan-text-1" data-fill-palette-color="secondary" id="text-1"></path></svg></g></svg></g></svg></g></svg></g><g><svg viewBox="0 0 122.17449000865993 126.65935934603243" height="126.65935934603243" width="122.17449000865993"><g><svg xmlns="http://www.w3.org/2000/svg" xmlns:xlink="http://www.w3.org/1999/xlink" version="1.1" x="0" y="0" viewBox="7.258999824523926 5.689000129699707 85.48399353027344 88.62200164794922" enable-background="new 0 0 100 100" xml:space="preserve" height="126.65935934603243" width="122.17449000865993" class="icon-icon-0" data-fill-palette-color="accent" id="icon-0"><path d="M30.487 51.552c-1.02 0-1.984 0.229-2.854 0.634 0.463 0.43 0.756 1.036 0.756 1.716 0 1.299-1.053 2.352-2.351 2.352-0.68 0-1.286-0.292-1.718-0.754-0.4 0.868-0.632 1.832-0.632 2.853 0 3.756 3.044 6.799 6.799 6.799s6.8-3.043 6.8-6.799C37.287 54.595 34.242 51.552 30.487 51.552z" fill="#a751d3" data-fill-palette-color="accent"></path><path d="M81.67 38.557c4.09-4.834 7.106-10.607 8.67-16.953-8.578 9.088-23.557 15.115-40.615 15.115-17.059 0-32.039-6.027-40.617-15.115 1.589 6.446 4.679 12.299 8.868 17.18C11.533 42.914 7.259 50.131 7.259 58.352c0 12.829 10.4 23.229 23.229 23.229 8.184 0 15.376-4.236 19.513-10.63 4.138 6.394 11.328 10.63 19.514 10.63 12.829 0 23.228-10.399 23.228-23.229C92.741 49.98 88.312 42.646 81.67 38.557zM30.487 74.001c-8.643 0-15.649-7.006-15.649-15.649 0-8.643 7.006-15.651 15.649-15.651s15.651 7.009 15.651 15.651C46.139 66.995 39.13 74.001 30.487 74.001zM69.514 74.001c-8.645 0-15.65-7.006-15.65-15.649 0-8.643 7.006-15.651 15.65-15.651 8.643 0 15.649 7.009 15.649 15.651C85.163 66.995 78.156 74.001 69.514 74.001z" fill="#a751d3" data-fill-palette-color="accent"></path><path d="M73.961 56.253c-1.298 0-2.351-1.053-2.351-2.352 0-0.68 0.293-1.286 0.754-1.716-0.867-0.404-1.832-0.634-2.851-0.634-3.757 0-6.802 3.043-6.802 6.8 0 3.756 3.045 6.799 6.802 6.799 3.754 0 6.799-3.043 6.799-6.799 0-1.021-0.231-1.984-0.635-2.853C75.249 55.961 74.641 56.253 73.961 56.253z" fill="#a751d3" data-fill-palette-color="accent"></path><polygon points="50,94.311 43.093,82.586 50,75.164 56.907,82.586 " fill="#a751d3" data-fill-palette-color="accent"></polygon><path d="M48.004 28.341l-15.899-6.125v9.812c5.498 1.509 11.461 2.315 17.62 2.315 4.895 0 9.666-0.511 14.177-1.476V22.217L48.004 28.341z" fill="#a751d3" data-fill-palette-color="accent"></path><polygon points="48.004,26.198 19.375,15.169 48.004,5.689 76.635,15.169 " fill="#a751d3" data-fill-palette-color="accent"></polygon></svg></g></svg></g></svg></g><defs></defs></svg><rect width="395.52" height="94.21905485679004" fill="none" stroke="none" visibility="hidden"></rect></g></svg></g></svg>