<svg xmlns="http://www.w3.org/2000/svg" version="1.1" xmlns:xlink="http://www.w3.org/1999/xlink" xmlns:svgjs="http://svgjs.dev/svgjs" width="2000" height="474" viewBox="0 0 2000 474"><g transform="matrix(1,0,0,1,-1.2121212121212466,0.5522927374099993)"><svg viewBox="0 0 396 94" data-background-color="#ffffff" preserveAspectRatio="xMidYMid meet" height="474" width="2000" xmlns="http://www.w3.org/2000/svg" xmlns:xlink="http://www.w3.org/1999/xlink"><g id="tight-bounds" transform="matrix(1,0,0,1,0.2400000000000091,-0.10952640784080359)"><svg viewBox="0 0 395.52 94.21905281568158" height="94.21905281568158" width="395.52"><g><svg viewBox="0 0 531.7004184551179 126.65935934603245" height="94.21905281568158" width="395.52"><g transform="matrix(1,0,0,1,136.18041845511783,17.505019996448773)"><svg viewBox="0 0 395.52 91.6493193531349" height="91.6493193531349" width="395.52"><g id="textblocktransform"><svg viewBox="0 0 395.52 91.6493193531349" height="91.6493193531349" width="395.52" id="textblock"><g><svg viewBox="0 0 395.52 59.327999999999996" height="59.327999999999996" width="395.52"><g transform="matrix(1,0,0,1,0,0)"><svg width="395.52" viewBox="0.8 -35.5 240.98 36.15" height="59.327999999999996" data-palette-color="#393737"><path d="M21.6-9.8L21.6-9.8Q21.6-5 17.95-2.2 14.3 0.6 9.1 0.6L9.1 0.6Q5.6 0.6 3.33-1.18 1.05-2.95 0.8-4.2L0.8-4.2Q1.35-5.85 3.15-7.9 4.95-9.95 6.4-10.4L6.4-10.4Q8.95-8.75 11.15-3.05L11.15-3.05Q14.4-3.15 14.4-6.6L14.4-6.6Q14.4-8.5 12.88-11.28 11.35-14.05 9.55-16.48 7.75-18.9 6.23-21.93 4.7-24.95 4.7-27.3L4.7-27.3Q4.7-31.1 7.78-33.3 10.85-35.5 14.7-35.5 18.55-35.5 20.68-33.85 22.8-32.2 22.8-30.1 22.8-28 21.2-25.8 19.6-23.6 18-22.3L18-22.3 16.4-21Q17-20.2 17.85-18.95 18.7-17.7 20.15-14.7 21.6-11.7 21.6-9.8ZM17.78-26.2Q18.45-26.85 19-27.78 19.55-28.7 19.55-29.73 19.55-30.75 18.35-31.45 17.15-32.15 15.48-32.15 13.8-32.15 12.68-31.38 11.55-30.6 11.55-29.53 11.55-28.45 12.28-27.03 13-25.6 13.7-24.65L13.7-24.65 14.45-23.7Q14.95-23.95 16.03-24.75 17.1-25.55 17.78-26.2ZM25.05-3.78Q25.05-5.9 26.35-11.08 27.65-16.25 27.65-17.43 27.65-18.6 25.85-20.55L25.85-20.55 25.9-21.2Q29.3-21.9 34.85-21.9L34.85-21.9Q35.1-21.25 35.1-19.55 35.1-17.85 33.7-12.3 32.3-6.75 32.3-5.4 32.3-4.05 33.3-4.05L33.3-4.05Q34.75-4.05 36.65-5.1L36.65-5.1Q36.85-6.3 37.65-9.7L37.65-9.7Q39.45-17.7 39.45-21.15L39.45-21.15Q41.2-21.85 45.75-21.85L45.75-21.85 46.7-21.85Q46.7-19.5 45.3-12.68 43.9-5.85 43.9-4.67 43.9-3.5 44.4-3.5L44.4-3.5Q44.7-3.5 47.25-4.7L47.25-4.7 48.2-3.1Q43.75 0.6 40.4 0.6L40.4 0.6Q38.8 0.6 37.67-0.3 36.55-1.2 36.4-2.65L36.4-2.65Q32.35 0.65 29.05 0.65L29.05 0.65Q27.3 0.65 26.17-0.5 25.05-1.65 25.05-3.78ZM50.95 0.15L50.95 0.15 50 0.15Q50-2.2 51.42-8.85 52.85-15.5 52.85-16.4L52.85-16.4Q52.85-18.05 51.45-19.9L51.45-19.9 51-20.5 51.05-21.15Q53.75-21.9 59.7-21.9L59.7-21.9Q60.4-20.95 60.4-18.8L60.4-18.8Q64.9-22.15 67.55-22.15L67.55-22.15Q70.9-22.15 71.5-18.7L71.5-18.7Q72.84-19.8 75.02-20.98 77.2-22.15 78.92-22.15 80.65-22.15 81.8-21.03 82.95-19.9 82.95-17.9 82.95-15.9 81.84-11.3 80.75-6.7 80.75-5.13 80.75-3.55 81.2-3.55L81.2-3.55Q81.5-3.55 83.25-4.5L83.25-4.5 83.8-4.8 84.7-3.05Q83.4-1.75 81.17-0.58 78.95 0.6 77.25 0.6L77.25 0.6Q73.5 0.6 73.5-3.65L73.5-3.65Q73.5-5.2 74.57-9.88 75.65-14.55 75.65-15.98 75.65-17.4 74.8-17.4L74.8-17.4Q73.34-17.4 71.5-16.3L71.5-16.3Q71.4-15.3 70.12-9.5 68.84-3.7 68.84-0.5L68.84-0.5Q67.4 0.15 62.05 0.15L62.05 0.15Q61.95-0.4 61.95-2.5 61.95-4.6 63.12-9.65 64.3-14.7 64.3-16.05 64.3-17.4 63.35-17.4L63.35-17.4Q61.85-17.4 60.05-16.2L60.05-16.2Q59.95-15.75 59.05-11.8L59.05-11.8Q57.25-3.9 57.25-0.55L57.25-0.55Q55.5 0.15 50.95 0.15ZM87.64 0.15L87.64 0.15 86.69 0.15Q86.69-2.2 88.12-8.85 89.54-15.5 89.54-16.4L89.54-16.4Q89.54-18.05 88.14-19.9L88.14-19.9 87.69-20.5 87.74-21.15Q90.44-21.9 96.39-21.9L96.39-21.9Q97.09-20.95 97.09-18.8L97.09-18.8Q101.59-22.15 104.24-22.15L104.24-22.15Q107.59-22.15 108.19-18.7L108.19-18.7Q109.54-19.8 111.72-20.98 113.89-22.15 115.62-22.15 117.34-22.15 118.49-21.03 119.64-19.9 119.64-17.9 119.64-15.9 118.54-11.3 117.44-6.7 117.44-5.13 117.44-3.55 117.89-3.55L117.89-3.55Q118.19-3.55 119.94-4.5L119.94-4.5 120.49-4.8 121.39-3.05Q120.09-1.75 117.87-0.58 115.64 0.6 113.94 0.6L113.94 0.6Q110.19 0.6 110.19-3.65L110.19-3.65Q110.19-5.2 111.27-9.88 112.34-14.55 112.34-15.98 112.34-17.4 111.49-17.4L111.49-17.4Q110.04-17.4 108.19-16.3L108.19-16.3Q108.09-15.3 106.82-9.5 105.54-3.7 105.54-0.5L105.54-0.5Q104.09 0.15 98.74 0.15L98.74 0.15Q98.64-0.4 98.64-2.5 98.64-4.6 99.82-9.65 100.99-14.7 100.99-16.05 100.99-17.4 100.04-17.4L100.04-17.4Q98.54-17.4 96.74-16.2L96.74-16.2Q96.64-15.75 95.74-11.8L95.74-11.8Q93.94-3.9 93.94-0.55L93.94-0.55Q92.19 0.15 87.64 0.15ZM137.89-20.7L137.89-20.7Q137.99-20.8 138.44-22L138.44-22Q140.79-22 144.74-20.6L144.74-20.6Q143.49-16.45 142.74-11.93 141.99-7.4 141.99-5.48 141.99-3.55 142.39-3.55L142.39-3.55Q142.69-3.55 144.59-4.5L144.59-4.5 145.19-4.8 146.09-3.05Q145.64-2.65 144.92-2.05 144.19-1.45 142.19-0.43 140.19 0.6 138.59 0.6L138.59 0.6Q135.49 0.6 134.99-2.2L134.99-2.2Q131.79 0.6 129.22 0.6 126.64 0.6 124.87-1.4 123.09-3.4 123.09-7.7L123.09-7.7Q123.09-14.4 125.84-18.28 128.59-22.15 132.49-22.15L132.49-22.15Q135.29-22.15 137.89-20.7ZM132.19-3.65L132.19-3.65Q133.39-3.65 134.89-4.6L134.89-4.6Q135.24-11.65 137.24-18.55L137.24-18.55Q135.74-19.2 134.69-19.2L134.69-19.2Q132.89-19.2 131.62-15.68 130.34-12.15 130.34-7.9 130.34-3.65 132.19-3.65ZM151.34-6.15L151.34-6.15Q151.34-6.15 151.69-22L151.69-22Q151.69-28.3 150.94-30.1L150.94-30.1 148.49-33.9 148.64-34.65Q152.19-35.45 158.84-35.45L158.84-35.45Q159.79-34 159.79-30.08 159.79-26.15 159.29-19.53 158.79-12.9 158.79-9.3 158.79-5.7 160.49-5.7L160.49-5.7Q161.49-5.7 163.39-7.33 165.29-8.95 166.64-10.85L166.64-10.85Q167.74-22.15 167.74-26.1 167.74-30.05 166.64-33.45L166.64-33.45Q169.29-34.8 175.34-35.5L175.34-35.5Q175.89-33.7 175.89-30.43 175.89-27.15 174.86-19.05 173.84-10.95 173.84-8.33 173.84-5.7 175.36-5.7 176.89-5.7 179.49-8.6 182.09-11.5 184.26-15.83 186.44-20.15 186.69-23.65L186.69-23.65 181.39-26.75Q181.74-29.75 182.81-31.93 183.89-34.1 184.79-34.8L184.79-34.8 185.69-35.5Q188.74-35.5 190.36-33.93 191.99-32.35 191.99-30.2L191.99-30.2Q191.99-26.15 189.96-20.75 187.94-15.35 184.96-10.65 181.99-5.95 178.19-2.68 174.39 0.6 171.19 0.6L171.19 0.6Q169.29 0.6 167.81-1.2 166.34-3 166.29-5.8L166.29-5.8Q164.09-2.8 161.64-1.1 159.19 0.6 156.94 0.6 154.69 0.6 153.01-1.28 151.34-3.15 151.34-6.15ZM201.89-19.05Q201.89-16.95 200.54-11.83 199.19-6.7 199.19-5.13 199.19-3.55 199.64-3.55L199.64-3.55Q199.94-3.55 201.94-4.5L201.94-4.5 202.54-4.8 203.39-3.05Q202.94-2.65 202.19-2.05 201.44-1.45 199.39-0.43 197.34 0.6 195.59 0.6 193.84 0.6 192.84-0.48 191.84-1.55 191.84-3.38 191.84-5.2 193.09-9.88 194.34-14.55 194.34-15.95L194.34-15.95Q194.34-18.05 193.04-19.9L193.04-19.9 192.59-20.5 192.64-21.15Q195.29-21.9 201.24-21.9L201.24-21.9Q201.89-21.15 201.89-19.05ZM196.19-27.38Q195.19-28.35 195.19-30 195.19-31.65 196.56-32.9 197.94-34.15 199.74-34.15 201.54-34.15 202.54-33.15 203.54-32.15 203.54-30.53 203.54-28.9 202.11-27.65 200.69-26.4 198.94-26.4 197.19-26.4 196.19-27.38ZM220.58-6.55L220.58-6.55Q220.58-3.4 217.81-1.4 215.03 0.6 211.48 0.6 207.93 0.6 205.86-0.9 203.78-2.4 203.78-3.55L203.78-3.55Q203.78-4.25 205.53-5.83 207.28-7.4 208.48-7.75L208.48-7.75Q210.98-5.9 212.58-1.9L212.58-1.9Q214.43-2.05 214.43-3.65L214.43-3.65Q214.43-5.95 210.38-10.18 206.33-14.4 206.33-16.9 206.33-19.4 208.58-20.78 210.83-22.15 214.01-22.15 217.18-22.15 218.78-21.03 220.38-19.9 220.38-17.98 220.38-16.05 217.33-12.65L217.33-12.65Q217.68-12.3 218.23-11.73 218.78-11.15 219.68-9.55 220.58-7.95 220.58-6.55ZM215.78-14.4Q217.88-16.2 217.88-17.95 217.88-19.7 215.48-19.7L215.48-19.7Q214.33-19.7 213.58-19.23 212.83-18.75 212.83-18.15L212.83-18.15Q212.83-17.05 215.03-15.05L215.03-15.05 215.78-14.4ZM222.68-8.65L222.68-8.65Q222.68-14.9 226.46-18.53 230.23-22.15 235.03-22.15L235.03-22.15Q237.98-22.15 239.88-20.7 241.78-19.25 241.78-16.82 241.78-14.4 240.56-12.75 239.33-11.1 237.58-10.2L237.58-10.2Q234.03-8.45 231.08-8L231.08-8 229.88-7.85Q230.23-3.15 233.73-3.15L233.73-3.15Q234.93-3.15 236.28-3.75 237.63-4.35 238.38-4.95L238.38-4.95 239.13-5.55 240.33-3.95Q239.93-3.4 238.73-2.5 237.53-1.6 236.48-1L236.48-1Q233.58 0.6 230.13 0.6 226.68 0.6 224.68-1.85 222.68-4.3 222.68-8.65ZM229.83-10.3Q232.38-10.75 233.88-12.45 235.38-14.15 235.38-16.85 235.38-19.55 233.78-19.55L233.78-19.55Q231.88-19.55 230.86-16.32 229.83-13.1 229.83-10.3L229.83-10.3Z" opacity="1" transform="matrix(1,0,0,1,0,0)" fill="#393737" class="wordmark-text-0" data-fill-palette-color="primary" id="text-0"></path></svg></g></svg></g><g transform="matrix(1,0,0,1,0,73.333916928)"><svg viewBox="0 0 232.209792 18.315402425134902" height="18.315402425134902" width="232.209792"><g transform="matrix(1,0,0,1,0,0)"><svg width="232.209792" viewBox="1.2 -37.7 482.41 38.190000000000005" height="18.315402425134902" data-palette-color="#564f4f"><g class="slogan-text-1" data-fill-palette-color="secondary" id="text-1"><path d="M1.2-24.51L1.2-24.51Q1.2-26.68 2.03-28.59 2.86-30.49 4.28-31.92 5.71-33.35 7.62-34.18 9.52-35.01 11.69-35.01L11.69-35.01 27.76-35.01 27.76-28 11.69-28Q10.96-28 10.33-27.73 9.69-27.47 9.22-26.99 8.74-26.51 8.47-25.88 8.2-25.24 8.2-24.51L8.2-24.51Q8.2-23.78 8.47-23.13 8.74-22.49 9.22-22.01 9.69-21.53 10.33-21.26 10.96-21 11.69-21L11.69-21 18.7-21Q20.87-21 22.79-20.18 24.71-19.36 26.14-17.93 27.56-16.5 28.38-14.59 29.2-12.67 29.2-10.5L29.2-10.5Q29.2-8.33 28.38-6.42 27.56-4.52 26.14-3.09 24.71-1.66 22.79-0.83 20.87 0 18.7 0L18.7 0 3.15 0 3.15-7.01 18.7-7.01Q19.43-7.01 20.07-7.28 20.7-7.54 21.18-8.02 21.66-8.5 21.92-9.13 22.19-9.77 22.19-10.5L22.19-10.5Q22.19-11.23 21.92-11.87 21.66-12.5 21.18-12.98 20.7-13.45 20.07-13.72 19.43-13.99 18.7-13.99L18.7-13.99 11.69-13.99Q9.52-13.99 7.62-14.82 5.71-15.65 4.28-17.08 2.86-18.51 2.03-20.42 1.2-22.34 1.2-24.51ZM54.49 0L52.29-3.05Q51.49-2.32 50.57-1.67 49.66-1.03 48.65-0.55 47.65-0.07 46.59 0.21 45.53 0.49 44.43 0.49L44.43 0.49Q42.01 0.49 39.89-0.37 37.77-1.22 36.17-2.8 34.57-4.37 33.65-6.63 32.74-8.89 32.74-11.69L32.74-11.69 32.74-26.15 39.38-26.15 39.38-11.69Q39.38-10.38 39.78-9.34 40.18-8.3 40.87-7.59 41.55-6.88 42.47-6.52 43.38-6.15 44.43-6.15L44.43-6.15Q45.46-6.15 46.37-6.63 47.29-7.1 47.97-7.89 48.65-8.67 49.05-9.66 49.44-10.64 49.44-11.69L49.44-11.69 49.44-26.15 56.1-26.15 56.1 0 54.49 0ZM94.43-16.6L94.43 0 87.79 0 87.79-16.6Q87.79-17.29 87.53-17.9 87.28-18.51 86.81-18.97 86.35-19.43 85.74-19.69 85.13-19.95 84.44-19.95L84.44-19.95Q83.76-19.95 83.16-19.69 82.56-19.43 82.11-18.97 81.66-18.51 81.4-17.9 81.15-17.29 81.15-16.6L81.15-16.6 81.15 0 74.48 0 74.48-16.6Q74.48-17.29 74.23-17.9 73.97-18.51 73.51-18.97 73.04-19.43 72.43-19.69 71.82-19.95 71.14-19.95L71.14-19.95Q70.45-19.95 69.86-19.69 69.26-19.43 68.81-18.97 68.35-18.51 68.1-17.9 67.84-17.29 67.84-16.6L67.84-16.6 67.84 0 61.18 0 61.18-26.15 62.79-26.15 64.59-24.15Q65.99-25.32 67.66-25.96 69.33-26.61 71.14-26.61L71.14-26.61Q72.97-26.61 74.71-25.93 76.46-25.24 77.78-23.56L77.78-23.56Q78.39-24.39 79.17-24.98 79.95-25.56 80.82-25.93 81.68-26.29 82.61-26.45 83.54-26.61 84.44-26.61L84.44-26.61Q86.52-26.61 88.34-25.83 90.16-25.05 91.51-23.69 92.87-22.34 93.65-20.51 94.43-18.68 94.43-16.6L94.43-16.6ZM132.54-16.6L132.54 0 125.9 0 125.9-16.6Q125.9-17.29 125.64-17.9 125.38-18.51 124.92-18.97 124.46-19.43 123.85-19.69 123.23-19.95 122.55-19.95L122.55-19.95Q121.87-19.95 121.27-19.69 120.67-19.43 120.22-18.97 119.77-18.51 119.51-17.9 119.26-17.29 119.26-16.6L119.26-16.6 119.26 0 112.59 0 112.59-16.6Q112.59-17.29 112.33-17.9 112.08-18.51 111.61-18.97 111.15-19.43 110.54-19.69 109.93-19.95 109.25-19.95L109.25-19.95Q108.56-19.95 107.96-19.69 107.37-19.43 106.91-18.97 106.46-18.51 106.21-17.9 105.95-17.29 105.95-16.6L105.95-16.6 105.95 0 99.28 0 99.28-26.15 100.9-26.15 102.7-24.15Q104.09-25.32 105.77-25.96 107.44-26.61 109.25-26.61L109.25-26.61Q111.08-26.61 112.82-25.93 114.57-25.24 115.89-23.56L115.89-23.56Q116.5-24.39 117.28-24.98 118.06-25.56 118.93-25.93 119.79-26.29 120.72-26.45 121.65-26.61 122.55-26.61L122.55-26.61Q124.63-26.61 126.45-25.83 128.26-25.05 129.62-23.69 130.97-22.34 131.76-20.51 132.54-18.68 132.54-16.6L132.54-16.6ZM162.71-26.1L162.71 0 161.1 0 158.51-3.59Q157.56-2.73 156.5-1.99 155.43-1.25 154.26-0.7 153.09-0.15 151.86 0.17 150.62 0.49 149.36 0.49L149.36 0.49Q146.6 0.49 144.17-0.44 141.74-1.37 139.92-3.14 138.1-4.91 137.05-7.47 136-10.03 136-13.31L136-13.31Q136-16.36 137.05-18.91 138.1-21.46 139.92-23.29 141.74-25.12 144.17-26.14 146.6-27.15 149.36-27.15L149.36-27.15Q150.62-27.15 151.87-26.83 153.12-26.51 154.29-25.95 155.46-25.39 156.52-24.63 157.58-23.88 158.51-23L158.51-23 161.1-26.1 162.71-26.1ZM156-13.31L156-13.31Q156-14.67 155.47-15.95 154.95-17.24 154.04-18.23 153.14-19.21 151.93-19.81 150.72-20.41 149.36-20.41L149.36-20.41Q147.99-20.41 146.78-19.95 145.57-19.48 144.68-18.58 143.79-17.68 143.28-16.35 142.76-15.01 142.76-13.31L142.76-13.31Q142.76-11.6 143.28-10.27 143.79-8.94 144.68-8.03 145.57-7.13 146.78-6.67 147.99-6.2 149.36-6.2L149.36-6.2Q150.72-6.2 151.93-6.8 153.14-7.4 154.04-8.39 154.95-9.38 155.47-10.66 156-11.94 156-13.31ZM174.45-14.4L174.45 0 167.79 0 167.79-26.15 169.4-26.15 171.59-23.05Q173.21-24.51 175.26-25.31 177.31-26.1 179.5-26.1L179.5-26.1 185.39-26.1 185.39-19.46 179.5-19.46Q178.45-19.46 177.53-19.07 176.6-18.68 175.92-17.99 175.23-17.31 174.84-16.38 174.45-15.45 174.45-14.4L174.45-14.4ZM196.35-33.25L196.35-33.25Q196.35-32.32 195.99-31.52 195.64-30.71 195.03-30.11 194.42-29.52 193.6-29.16 192.78-28.81 191.86-28.81L191.86-28.81Q190.93-28.81 190.11-29.16 189.29-29.52 188.69-30.11 188.1-30.71 187.74-31.52 187.39-32.32 187.39-33.25L187.39-33.25Q187.39-34.16 187.74-34.97 188.1-35.79 188.69-36.39 189.29-36.99 190.11-37.34 190.93-37.7 191.86-37.7L191.86-37.7Q192.78-37.7 193.6-37.34 194.42-36.99 195.03-36.39 195.64-35.79 195.99-34.97 196.35-34.16 196.35-33.25ZM195.2-26.15L195.2 0 188.49 0 188.49-26.15 195.2-26.15ZM220.69-6.64L220.69 0 198.88 0 209.89-19.46 198.88-19.46 198.88-26.1 220.69-26.1 209.67-6.64 220.69-6.64ZM247.27-21.46L234.77-6.4Q235.16-6.27 235.55-6.24 235.94-6.2 236.33-6.2L236.33-6.2Q237.31-6.2 238.21-6.47 239.12-6.74 239.91-7.24 240.7-7.74 241.33-8.46 241.95-9.18 242.34-10.06L242.34-10.06 247.22-5.15Q246.29-3.83 245.08-2.78 243.88-1.73 242.47-1 241.07-0.27 239.52 0.11 237.97 0.49 236.33 0.49L236.33 0.49Q233.57 0.49 231.14-0.54 228.72-1.56 226.9-3.39 225.08-5.22 224.03-7.75 222.98-10.28 222.98-13.31L222.98-13.31Q222.98-16.41 224.03-18.97 225.08-21.53 226.9-23.34 228.72-25.15 231.14-26.15 233.57-27.15 236.33-27.15L236.33-27.15Q237.97-27.15 239.53-26.76 241.09-26.37 242.5-25.63 243.9-24.9 245.12-23.84 246.34-22.78 247.27-21.46L247.27-21.46ZM230.42-9.84L238.19-20.14Q237.72-20.31 237.27-20.36 236.82-20.41 236.33-20.41L236.33-20.41Q234.97-20.41 233.76-19.91 232.55-19.41 231.66-18.48 230.77-17.55 230.25-16.25 229.74-14.94 229.74-13.31L229.74-13.31Q229.74-12.94 229.78-12.48 229.81-12.01 229.9-11.54 229.98-11.06 230.11-10.62 230.23-10.18 230.42-9.84L230.42-9.84Z" fill="#393737" data-fill-palette-color="primary"></path><path d="M296.8-26.1L296.8-9.45Q296.8-7.4 296.02-5.58 295.24-3.76 293.89-2.42 292.53-1.07 290.71-0.29 288.89 0.49 286.82 0.49L286.82 0.49Q284.96 0.49 283.25-0.16 281.54-0.81 280.15-2.05L280.15-2.05Q278.79-0.81 277.09-0.16 275.39 0.49 273.51 0.49L273.51 0.49Q271.44 0.49 269.63-0.29 267.82-1.07 266.47-2.42 265.11-3.76 264.33-5.58 263.55-7.4 263.55-9.45L263.55-9.45 263.55-26.1 270.22-26.1 270.22-9.45Q270.22-8.76 270.47-8.17 270.73-7.57 271.18-7.12 271.63-6.67 272.23-6.41 272.83-6.15 273.51-6.15L273.51-6.15Q274.2-6.15 274.81-6.41 275.42-6.67 275.88-7.12 276.34-7.57 276.6-8.17 276.86-8.76 276.86-9.45L276.86-9.45 276.86-26.1 283.5-26.1 283.5-9.45Q283.5-8.76 283.77-8.17 284.04-7.57 284.49-7.12 284.94-6.67 285.54-6.41 286.13-6.15 286.82-6.15L286.82-6.15Q287.5-6.15 288.11-6.41 288.72-6.67 289.17-7.12 289.63-7.57 289.89-8.17 290.16-8.76 290.16-9.45L290.16-9.45 290.16-26.1 296.8-26.1ZM309.5-33.25L309.5-33.25Q309.5-32.32 309.14-31.52 308.79-30.71 308.18-30.11 307.57-29.52 306.75-29.16 305.93-28.81 305-28.81L305-28.81Q304.08-28.81 303.26-29.16 302.44-29.52 301.84-30.11 301.24-30.71 300.89-31.52 300.54-32.32 300.54-33.25L300.54-33.25Q300.54-34.16 300.89-34.97 301.24-35.79 301.84-36.39 302.44-36.99 303.26-37.34 304.08-37.7 305-37.7L305-37.7Q305.93-37.7 306.75-37.34 307.57-36.99 308.18-36.39 308.79-35.79 309.14-34.97 309.5-34.16 309.5-33.25ZM308.35-26.15L308.35 0 301.64 0 301.64-26.15 308.35-26.15ZM331.59 0L326.53 0Q324.12 0 321.99-0.92 319.87-1.83 318.27-3.43 316.67-5.03 315.76-7.15 314.84-9.28 314.84-11.69L314.84-11.69 314.84-19.46 311.59-19.46 311.59-26.1 314.84-26.1 314.84-36.55 321.48-36.55 321.48-26.1 331.59-26.1 331.59-19.46 321.48-19.46 321.48-11.69Q321.48-10.64 321.87-9.73 322.26-8.81 322.95-8.13 323.63-7.45 324.56-7.04 325.49-6.64 326.53-6.64L326.53-6.64 331.59-6.64 331.59 0ZM341.99-14.94L341.99 0 335.32 0 335.32-36.55 341.99-36.55 341.99-25Q343.18-25.9 344.45-26.28 345.72-26.66 347.04-26.66L347.04-26.66Q349.46-26.66 351.58-25.74 353.71-24.83 355.28-23.23 356.85-21.63 357.77-19.49 358.69-17.36 358.69-14.94L358.69-14.94 358.69 0 351.97 0 351.97-14.94 352.02-14.94Q352.02-15.97 351.63-16.88 351.24-17.8 350.56-18.48 349.87-19.17 348.97-19.56 348.07-19.95 347.04-19.95L347.04-19.95Q345.99-19.95 345.06-19.56 344.14-19.17 343.45-18.48 342.77-17.8 342.38-16.88 341.99-15.97 341.99-14.94L341.99-14.94Z" fill="#564f4f" data-fill-palette-color="secondary"></path><path d="M399.92-7.01L399.92 0 375.92 0 375.92-35.01 399.92-35.01 399.92-28 382.93-28 382.93-21 394.43-21 394.43-13.99 382.93-13.99 382.93-7.01 399.92-7.01ZM429.44-26.1L429.44 0 427.83 0 425.24-3.59Q424.29-2.73 423.22-1.99 422.16-1.25 420.99-0.7 419.82-0.15 418.58 0.17 417.35 0.49 416.08 0.49L416.08 0.49Q413.32 0.49 410.89-0.44 408.47-1.37 406.65-3.14 404.83-4.91 403.78-7.47 402.73-10.03 402.73-13.31L402.73-13.31Q402.73-16.36 403.78-18.91 404.83-21.46 406.65-23.29 408.47-25.12 410.89-26.14 413.32-27.15 416.08-27.15L416.08-27.15Q417.35-27.15 418.6-26.83 419.84-26.51 421.01-25.95 422.19-25.39 423.25-24.63 424.31-23.88 425.24-23L425.24-23 427.83-26.1 429.44-26.1ZM422.72-13.31L422.72-13.31Q422.72-14.67 422.2-15.95 421.67-17.24 420.77-18.23 419.87-19.21 418.66-19.81 417.45-20.41 416.08-20.41L416.08-20.41Q414.72-20.41 413.51-19.95 412.3-19.48 411.41-18.58 410.52-17.68 410-16.35 409.49-15.01 409.49-13.31L409.49-13.31Q409.49-11.6 410-10.27 410.52-8.94 411.41-8.03 412.3-7.13 413.51-6.67 414.72-6.2 416.08-6.2L416.08-6.2Q417.45-6.2 418.66-6.8 419.87-7.4 420.77-8.39 421.67-9.38 422.2-10.66 422.72-11.94 422.72-13.31ZM448.87 0L448.87 0 433.63 0 433.63-6.64 448.87-6.64Q449.55-6.64 450.04-7.13 450.53-7.62 450.53-8.3L450.53-8.3Q450.53-9.01 450.04-9.23 449.55-9.45 448.87-9.45L448.87-9.45 441.93-9.45Q440.2-9.45 438.69-10.11 437.17-10.77 436.05-11.9 434.93-13.04 434.28-14.55 433.63-16.06 433.63-17.8L433.63-17.8Q433.63-19.53 434.28-21.04 434.93-22.56 436.05-23.68 437.17-24.8 438.69-25.45 440.2-26.1 441.93-26.1L441.93-26.1 455.44-26.1 455.44-19.46 441.93-19.46Q441.25-19.46 440.76-18.97 440.27-18.48 440.27-17.8L440.27-17.8Q440.27-17.09 440.76-16.59 441.25-16.09 441.93-16.09L441.93-16.09 448.87-16.09Q450.58-16.09 452.09-15.52 453.6-14.94 454.73-13.92 455.85-12.89 456.51-11.45 457.17-10.01 457.17-8.3L457.17-8.3Q457.17-6.57 456.51-5.07 455.85-3.56 454.73-2.43 453.6-1.29 452.09-0.65 450.58 0 448.87 0ZM483.61-21.46L471.11-6.4Q471.5-6.27 471.89-6.24 472.28-6.2 472.67-6.2L472.67-6.2Q473.65-6.2 474.55-6.47 475.45-6.74 476.25-7.24 477.04-7.74 477.66-8.46 478.28-9.18 478.68-10.06L478.68-10.06 483.56-5.15Q482.63-3.83 481.42-2.78 480.21-1.73 478.81-1 477.41-0.27 475.86 0.11 474.31 0.49 472.67 0.49L472.67 0.49Q469.91 0.49 467.48-0.54 465.05-1.56 463.23-3.39 461.41-5.22 460.36-7.75 459.31-10.28 459.31-13.31L459.31-13.31Q459.31-16.41 460.36-18.97 461.41-21.53 463.23-23.34 465.05-25.15 467.48-26.15 469.91-27.15 472.67-27.15L472.67-27.15Q474.31-27.15 475.87-26.76 477.43-26.37 478.83-25.63 480.24-24.9 481.46-23.84 482.68-22.78 483.61-21.46L483.61-21.46ZM466.76-9.84L474.52-20.14Q474.06-20.31 473.61-20.36 473.16-20.41 472.67-20.41L472.67-20.41Q471.3-20.41 470.09-19.91 468.89-19.41 467.99-18.48 467.1-17.55 466.59-16.25 466.08-14.94 466.08-13.31L466.08-13.31Q466.08-12.94 466.11-12.48 466.15-12.01 466.24-11.54 466.32-11.06 466.44-10.62 466.57-10.18 466.76-9.84L466.76-9.84Z" fill="#a751d3" data-fill-palette-color="accent"></path></g></svg></g></svg></g></svg></g></svg></g><g><svg viewBox="0 0 122.17450152711783 126.65935934603245" height="126.65935934603245" width="122.17450152711783"><g><svg xmlns="http://www.w3.org/2000/svg" xmlns:xlink="http://www.w3.org/1999/xlink" version="1.1" x="0" y="0" viewBox="7.259 5.689 85.484 88.62200000000001" enable-background="new 0 0 100 100" xml:space="preserve" height="126.65935934603245" width="122.17450152711783" class="icon-icon-0" data-fill-palette-color="accent" id="icon-0"><path d="M30.487 51.552c-1.02 0-1.984 0.229-2.854 0.634 0.463 0.43 0.756 1.036 0.756 1.716 0 1.299-1.053 2.352-2.351 2.352-0.68 0-1.286-0.292-1.718-0.754-0.4 0.868-0.632 1.832-0.632 2.853 0 3.756 3.044 6.799 6.799 6.799s6.8-3.043 6.8-6.799C37.287 54.595 34.242 51.552 30.487 51.552z" fill="#a751d3" data-fill-palette-color="accent"></path><path d="M81.67 38.557c4.09-4.834 7.106-10.607 8.67-16.953-8.578 9.088-23.557 15.115-40.615 15.115-17.059 0-32.039-6.027-40.617-15.115 1.589 6.446 4.679 12.299 8.868 17.18C11.533 42.914 7.259 50.131 7.259 58.352c0 12.829 10.4 23.229 23.229 23.229 8.184 0 15.376-4.236 19.513-10.63 4.138 6.394 11.328 10.63 19.514 10.63 12.829 0 23.228-10.399 23.228-23.229C92.741 49.98 88.312 42.646 81.67 38.557zM30.487 74.001c-8.643 0-15.649-7.006-15.649-15.649 0-8.643 7.006-15.651 15.649-15.651s15.651 7.009 15.651 15.651C46.139 66.995 39.13 74.001 30.487 74.001zM69.514 74.001c-8.645 0-15.65-7.006-15.65-15.649 0-8.643 7.006-15.651 15.65-15.651 8.643 0 15.649 7.009 15.649 15.651C85.163 66.995 78.156 74.001 69.514 74.001z" fill="#a751d3" data-fill-palette-color="accent"></path><path d="M73.961 56.253c-1.298 0-2.351-1.053-2.351-2.352 0-0.68 0.293-1.286 0.754-1.716-0.867-0.404-1.832-0.634-2.851-0.634-3.757 0-6.802 3.043-6.802 6.8 0 3.756 3.045 6.799 6.802 6.799 3.754 0 6.799-3.043 6.799-6.799 0-1.021-0.231-1.984-0.635-2.853C75.249 55.961 74.641 56.253 73.961 56.253z" fill="#a751d3" data-fill-palette-color="accent"></path><polygon points="50,94.311 43.093,82.586 50,75.164 56.907,82.586 " fill="#a751d3" data-fill-palette-color="accent"></polygon><path d="M48.004 28.341l-15.899-6.125v9.812c5.498 1.509 11.461 2.315 17.62 2.315 4.895 0 9.666-0.511 14.177-1.476V22.217L48.004 28.341z" fill="#a751d3" data-fill-palette-color="accent"></path><polygon points="48.004,26.198 19.375,15.169 48.004,5.689 76.635,15.169 " fill="#a751d3" data-fill-palette-color="accent"></polygon></svg></g></svg></g></svg></g><defs></defs></svg><rect width="395.52" height="94.21905281568158" fill="none" stroke="none" visibility="hidden"></rect></g></svg></g></svg>